HIERARCHY
ROOT Hips
{
	OFFSET 0.000000 0.000000 0.000000 
	CHANNELS 6 Xposition Yposition Zposition Zrotation Yrotation Xrotation
	JOINT LeftUpLeg
	{
		OFFSET 1.363060 -1.794630 0.839290 
		CHANNELS 3 Zrotation Yrotation Xrotation
		JOINT LeftLeg
		{
			OFFSET 2.448110 -6.726130 0.000000 
			CHANNELS 3 Zrotation Yrotation Xrotation
			JOINT LeftFoot
			{
				OFFSET 2.562200 -7.039590 0.000000 
				CHANNELS 3 Zrotation Yrotation Xrotation
				JOINT LeftToeBase
				{
					OFFSET 0.157640 -0.433110 2.322550 
					CHANNELS 3 Zrotation Yrotation Xrotation
					End Site
					{
						OFFSET 0.000000 0.000000 0.000000 
					}
				}
			}
		}
	}
	JOINT RightUpLeg
	{
		OFFSET -1.305520 -1.794630 0.839290 
		CHANNELS 3 Zrotation Yrotation Xrotation
		JOINT RightLeg
		{
			OFFSET -2.542530 -6.985550 0.000000 
			CHANNELS 3 Zrotation Yrotation Xrotation
			JOINT RightFoot
			{
				OFFSET -2.568260 -7.056230 0.000000 
				CHANNELS 3 Zrotation Yrotation Xrotation
				JOINT RightToeBase
				{
					OFFSET -0.164730 -0.452590 2.363150 
					CHANNELS 3 Zrotation Yrotation Xrotation
					End Site
					{
						OFFSET 0.000000 0.000000 0.000000 
					}
				}
			}
		}
	}
	JOINT Spine
	{
		OFFSET 0.028270 2.035590 -0.193380 
		CHANNELS 3 Zrotation Yrotation Xrotation
		JOINT Spine1
		{
			OFFSET 0.056720 2.048850 -0.042750 
			CHANNELS 3 Zrotation Yrotation Xrotation
			JOINT Neck1
			{
				OFFSET -0.054170 1.746240 0.172020 
				CHANNELS 3 Zrotation Yrotation Xrotation
				JOINT Head
				{
					OFFSET 0.104070 1.761360 -0.123970 
					CHANNELS 3 Zrotation Yrotation Xrotation
					End Site
					{
						OFFSET 0.000000 0.000000 0.000000 
					}
				}
			}
			JOINT LeftArm
			{
				OFFSET 3.362410 1.200890 -0.311210 
				CHANNELS 3 Zrotation Yrotation Xrotation
				JOINT LeftForeArm
				{
					OFFSET 4.983000 -0.000000 -0.000000 
					CHANNELS 3 Zrotation Yrotation Xrotation
					JOINT LeftHand
					{
						OFFSET 3.483560 -0.000000 -0.000000 
						CHANNELS 3 Zrotation Yrotation Xrotation
						JOINT LeftHandIndex1
						{
							OFFSET 0.715260 -0.000000 -0.000000 
							CHANNELS 3 Zrotation Yrotation Xrotation
							End Site
							{
								OFFSET 0.000000 0.000000 0.000000 
							}
						}
					}
				}
			}
			JOINT RightArm
			{
				OFFSET -3.136600 1.374050 -0.404650 
				CHANNELS 3 Zrotation Yrotation Xrotation
				JOINT RightForeArm
				{
					OFFSET -5.241900 -0.000000 -0.000000 
					CHANNELS 3 Zrotation Yrotation Xrotation
					JOINT RightHand
					{
						OFFSET -3.444170 -0.000000 -0.000000 
						CHANNELS 3 Zrotation Yrotation Xrotation
						JOINT RightHandIndex1
						{
							OFFSET -0.622530 -0.000000 -0.000000 
							CHANNELS 3 Zrotation Yrotation Xrotation
							End Site
							{
								OFFSET 0.000000 0.000000 0.000000 
							}
						}
					}
				}
			}
		}
	}
}
MOTION
Frames: 10
Frame Time: 0.041667
-32.077798 17.437445 -14.555570 6.765321 -73.490300 -1.149979 -15.022686 9.526654 -24.931510 2.947634 13.175438 37.863007 0.710576 -2.225765 3.237750 2.158100 -9.187900 -26.384900 11.900476 -3.551999 -27.372075 -3.740359 -14.075723 40.021552 1.513287 -8.257390 -4.614678 -0.854000 5.893500 -16.475700 1.039373 -1.859463 -2.317845 5.515793 -1.398824 0.990491 9.131313 -15.006018 1.709448 11.472200 -5.559900 -1.421200 -76.589541 10.412764 52.779606 34.255035 -48.303998 -15.164937 -0.576262 -0.376759 -22.093152 -7.125000 0.000000 0.000000 73.304732 13.811728 20.753271 -30.454961 41.579153 -14.907160 0.294192 -0.637712 -11.945435 7.125000 0.000000 0.000000 
-31.981879 17.404700 -14.560200 6.471301 -73.198203 -0.661877 -14.860013 9.454515 -26.332881 3.288827 13.609895 39.306241 0.908104 -3.450147 3.860650 2.531500 -9.894900 -28.637000 11.731954 -3.725944 -28.716991 -4.129018 -14.504961 41.470866 1.228353 -7.074078 -3.894051 -0.771600 5.608900 -15.653800 1.049779 -1.888559 -2.328420 5.392165 -1.422145 0.560670 9.337604 -15.041090 1.038175 11.547100 -5.459700 -1.547100 -76.484901 10.528016 51.838305 35.253790 -48.796808 -15.838733 -0.562075 -0.344166 -22.158295 -7.125000 0.000000 0.000000 71.842565 14.146419 20.699471 -32.524517 42.825240 -16.403955 0.293059 -0.588470 -13.276350 7.125000 0.000000 0.000000 
-31.884196 17.357402 -14.560200 6.545080 -72.987737 -0.490073 -14.752371 9.474360 -27.885033 3.706855 14.105375 41.011829 1.137374 -5.019610 4.472235 2.350400 -9.560600 -27.565300 11.434535 -3.908198 -30.202368 -4.575991 -14.965742 43.069037 0.963042 -5.922723 -3.082278 -0.971000 6.273300 -17.579500 1.058403 -1.874303 -2.333397 5.305983 -1.432931 0.213327 9.396216 -15.204611 0.420368 11.458400 -5.434500 -1.612300 -76.620372 10.619048 50.620303 36.075795 -49.174516 -16.405296 -0.541344 -0.288247 -22.227349 -7.125000 0.000000 0.000000 69.997727 14.613057 20.642401 -34.586992 43.963437 -17.955609 0.305808 -0.538910 -14.772556 7.125000 0.000000 0.000000 
-31.786623 17.297976 -14.564500 6.203652 -72.760904 0.290829 -14.508966 9.565287 -29.656458 4.112252 14.557704 42.590620 1.345872 -6.596246 4.940172 2.041100 -8.951100 -25.642500 11.244969 -3.976164 -31.879654 -5.012215 -15.417385 44.606068 0.776721 -5.067414 -2.242849 -1.247200 7.080900 -19.955300 1.087662 -1.880800 -2.329447 5.273953 -1.473102 0.081292 9.349336 -15.217158 -0.197495 11.192700 -5.351500 -1.711100 -76.945366 10.524819 49.124836 36.923732 -49.574082 -17.011867 -0.526408 -0.222676 -22.343163 -7.125000 0.000000 0.000000 67.954187 15.362552 20.400015 -36.795701 45.081927 -19.681080 0.316825 -0.482585 -16.394819 7.125000 0.000000 0.000000 
-31.686734 17.223666 -14.569572 4.429757 -72.604079 2.627474 -13.788645 9.456577 -31.518316 4.541732 14.987159 44.103003 1.437320 -7.366211 4.797014 1.987300 -8.839500 -25.294500 11.508205 -3.904110 -33.765979 -5.412087 -15.866845 46.070740 0.622831 -4.345201 -1.664986 -1.450800 7.613800 -21.547100 1.137206 -1.878094 -2.329507 5.130553 -1.510881 0.062082 9.244567 -15.110168 -0.760284 10.807000 -5.245400 -1.747400 -77.417969 10.321719 47.359058 37.648851 -49.886499 -17.573160 -0.530016 -0.150289 -22.944271 -7.125000 0.000000 0.000000 65.857698 16.244862 20.051438 -39.192121 46.188065 -21.609248 0.318684 -0.419680 -18.012253 7.125000 0.000000 0.000000 
-31.591367 17.149246 -14.569682 6.226603 -72.768314 1.165137 -14.023327 9.383255 -32.735650 4.959708 15.398966 45.557322 1.344930 -6.795871 3.654156 2.182500 -9.236200 -26.537000 10.576897 -3.726990 -35.128817 -5.811258 -16.215168 47.317028 0.535455 -3.893435 -0.932369 -1.514600 7.771900 -22.023300 1.118617 -1.752025 -2.306089 5.171533 -1.494778 -0.066381 9.236589 -15.118668 -1.452607 10.533000 -5.180400 -1.947600 -78.082721 10.201886 45.519303 38.055388 -50.038279 -17.929143 -0.546707 -0.056123 -24.275694 -7.125000 0.000000 0.000000 63.325486 17.098265 19.655909 -41.406697 47.089118 -23.459618 0.348199 -0.353911 -19.811215 7.125000 0.000000 0.000000 
-31.505260 17.080339 -14.577069 7.189021 -72.886890 0.375212 -13.897046 9.493088 -33.787504 5.377973 15.756983 46.879572 1.115163 -5.199994 2.232284 2.683300 -10.163800 -29.508800 9.871547 -3.405400 -36.085014 -6.124311 -16.487523 48.281054 0.532740 -3.840063 -0.375963 -1.493900 7.721000 -21.869700 1.127190 -1.693874 -2.269922 5.325379 -1.534952 -0.123321 9.198422 -14.861410 -2.126525 10.217400 -5.011900 -2.159700 -79.031041 9.921180 43.115803 37.982821 -49.924370 -17.978321 -0.552274 0.045392 -25.313114 -7.125000 0.000000 0.000000 60.577289 18.182787 19.330696 -43.567828 47.866582 -25.296537 0.386706 -0.285258 -21.446426 7.125000 0.000000 0.000000 
-31.426981 16.995445 -14.590850 7.366809 -72.877056 0.354722 -13.412342 9.577832 -34.788442 5.757487 16.055781 48.020658 0.847900 -3.508761 1.249708 2.716600 -10.221500 -29.697000 9.387046 -3.125121 -36.939329 -6.356301 -16.695081 48.988476 0.575156 -4.019324 -0.149765 -1.770800 8.371400 -23.847900 1.161895 -1.841352 -2.228732 5.544331 -1.703117 0.003508 9.174050 -14.276936 -2.691691 9.832900 -4.738300 -2.259400 -80.070421 9.432545 39.922074 37.618298 -49.634477 -17.883681 -0.558569 0.115870 -25.293040 -7.125000 0.000000 0.000000 58.461014 19.541247 18.728606 -46.274741 48.791210 -27.615975 0.400533 -0.212590 -22.352592 7.125000 0.000000 0.000000 
-31.345174 16.897872 -14.600442 7.696843 -73.017438 0.243146 -12.822441 9.608117 -35.741256 6.117451 16.319600 49.071589 0.560476 -1.838812 0.491591 2.073000 -9.016500 -25.847000 8.775385 -2.695076 -37.799270 -6.500571 -16.839498 49.373819 0.719013 -4.688666 -0.125452 -2.233100 9.335500 -26.850600 1.171708 -1.861825 -2.196932 5.592269 -1.782840 0.018044 9.148538 -13.828287 -3.279473 9.481100 -4.541300 -2.412000 -81.120967 9.095495 36.916840 37.324362 -49.375332 -17.843694 -0.592311 0.156005 -25.742500 -7.125000 0.000000 0.000000 56.411815 20.811733 17.409018 -49.216456 49.666226 -30.259722 0.410604 -0.120206 -23.079761 7.125000 0.000000 0.000000 
-31.264800 16.804599 -14.611688 7.941747 -73.146130 0.214527 -12.107723 9.510526 -36.560495 6.456960 16.552398 50.000457 0.101124 0.646598 -0.412487 1.602900 -7.984700 -22.667700 8.146207 -2.310547 -38.503576 -6.569621 -16.916861 49.501338 0.872707 -5.405247 -0.120525 -2.451700 9.749500 -28.169300 1.163571 -1.744368 -2.166718 5.485185 -1.754022 -0.138866 9.184014 -13.799704 -4.022499 9.324800 -4.494100 -2.727700 -82.155872 9.001992 34.605066 37.187478 -49.221758 -17.882856 -0.635266 0.204898 -27.623670 -7.125000 0.000000 0.000000 53.921492 21.823887 15.555449 -52.025425 50.370719 -32.950198 0.428757 -0.006061 -24.074919 7.125000 0.000000 0.000000 
